<svg width="30" height="25" viewBox="0 0 30 25" fill="none" xmlns="http://www.w3.org/2000/svg">
<rect width="30" height="25" rx="3" fill="#5157F8"/>
<path d="M14.9999 12.75C13.4492 12.75 12.1875 14.0117 12.1875 15.5625C12.1875 17.1133 13.4492 18.375 14.9999 18.375C16.5507 18.375 17.8124 17.1133 17.8124 15.5625C17.8124 14.0117 16.5507 12.75 14.9999 12.75ZM14.9999 17.125C14.1384 17.125 13.4375 16.4241 13.4375 15.5625C13.4375 14.7009 14.1384 14 14.9999 14C15.8615 14 16.5624 14.7009 16.5624 15.5625C16.5624 16.4241 15.8615 17.125 14.9999 17.125Z" fill="white"/>
<path d="M22.9328 14.0821C22.2434 12.7168 21.1511 11.5602 19.773 10.7358L21.4648 9.04397C21.7088 8.7999 21.7089 8.40419 21.4648 8.16009C21.2207 7.91603 20.825 7.91603 20.5809 8.16009L18.5962 10.1449C17.6608 9.75772 16.6567 9.52484 15.625 9.45781V6.625C15.625 6.27981 15.3452 6 15 6C14.6548 6 14.375 6.27981 14.375 6.625V9.45778C13.3433 9.52481 12.3392 9.75768 11.4038 10.1448L9.41905 8.16006C9.17495 7.91597 8.7792 7.91597 8.53514 8.16006C8.29111 8.40412 8.29111 8.79984 8.53517 9.04394L10.227 10.7357C8.84889 11.5602 7.75652 12.7167 7.0672 14.082C6.91164 14.3902 7.03533 14.7661 7.34345 14.9217C7.65149 15.0772 8.02752 14.9536 8.18305 14.6454C9.34236 12.3493 11.9259 10.6875 15 10.6875C18.0764 10.6875 20.6587 12.3513 21.8169 14.6455C21.9728 14.9541 22.3489 15.077 22.6565 14.9217C22.9647 14.7661 23.0884 14.3902 22.9328 14.0821Z" fill="white"/>
</svg>
